<svg width="40" height="40" viewBox="0 0 40 40" fill="none" xmlns="http://www.w3.org/2000/svg">
<path d="M12 26.4796C12.1891 26.6687 12.2937 26.9265 12.2922 27.1937C12.2906 27.4609 12.1812 27.7156 11.9906 27.903C11.7984 28.089 11.5406 28.1905 11.2734 28.1859C11.0062 28.1812 10.7515 28.0702 10.5687 27.8765C9.16406 26.4406 8.10154 24.7046 7.46406 22.8001C7.37812 22.547 7.39531 22.2704 7.51562 22.0313C7.63437 21.7907 7.84375 21.6094 8.09842 21.5266C8.35155 21.4423 8.62966 21.4641 8.86718 21.586C9.10468 21.7095 9.28438 21.9204 9.36406 22.1767C9.90626 23.7907 10.8078 25.2626 12 26.4799L12 26.4796ZM31.9 21.5232C31.6484 21.4388 31.3734 21.4591 31.1359 21.5779C30.8984 21.6982 30.7187 21.9076 30.6359 22.1591C30.0953 23.781 29.1937 25.2576 28 26.4795C27.8109 26.6686 27.7062 26.9264 27.7078 27.1936C27.7094 27.4608 27.8187 27.7155 28.0094 27.903C28.2016 28.0889 28.4594 28.1905 28.7266 28.1858C28.9938 28.1811 29.2484 28.0702 29.4312 27.8764C30.8375 26.4405 31.8984 24.7045 32.5359 22.8C32.6234 22.5469 32.6047 22.2688 32.4859 22.0281C32.3656 21.7891 32.1547 21.6062 31.9 21.5234L31.9 21.5232ZM17.5 7.764C19.1594 7.38588 20.8812 7.38588 22.5408 7.764C22.8017 7.83431 23.0814 7.79369 23.3127 7.65463C23.5455 7.514 23.7111 7.28587 23.772 7.02183C23.833 6.75776 23.783 6.47963 23.6361 6.25307C23.4877 6.02494 23.2548 5.86713 22.9877 5.81555C21.0361 5.37023 19.008 5.37023 17.0565 5.81555C16.5689 5.97492 16.2815 6.47803 16.3908 6.97963C16.5002 7.48119 16.9705 7.81715 17.4799 7.75931L17.5 7.764ZM7.96879 1.9516C10.2719 1.94067 12.15 3.79692 12.1688 6.1C12.1688 8.42032 10.2876 10.3 7.96879 10.3C5.64847 10.3 3.76879 8.42032 3.76879 6.1C3.78598 3.79688 5.66411 1.9408 7.96879 1.9516ZM7.96879 3.9516C7.10471 3.97348 6.33755 4.5094 6.02035 5.31408C5.70473 6.1172 5.9016 7.03284 6.51879 7.63596C7.13755 8.24064 8.05787 8.41408 8.85315 8.07972C9.65003 7.74379 10.1672 6.96408 10.1688 6.10004C10.1532 4.90004 9.16879 3.93912 7.96879 3.9516ZM8.97659 14.7108L10.9157 12.7999H11.5235C11.9985 12.7936 12.4563 12.9764 12.7954 13.3061C13.136 13.6374 13.3297 14.0889 13.336 14.5639V16.8561C13.336 17.4077 13.7844 17.8561 14.336 17.8561C14.8891 17.8561 15.336 17.4077 15.336 16.8561V14.5639C15.3204 12.4733 13.6157 10.7889 11.5235 10.7998H10.5079C10.2454 10.7998 9.99539 10.9045 9.80787 11.0873L7.96723 12.8951L6.12659 11.0873H6.12816C5.94222 10.9045 5.69064 10.7998 5.42816 10.7998H4.40004C2.31412 10.7952 0.615677 12.478 0.600037 14.5639V16.8561C0.600037 17.4077 1.04848 17.8561 1.60004 17.8561C2.1516 17.8561 2.60004 17.4077 2.60004 16.8561V14.5639C2.61254 13.5811 3.41724 12.7936 4.40004 12.7998H5.00784L6.9516 14.7123C7.51568 15.2623 8.41568 15.2608 8.9766 14.7076L8.97659 14.7108ZM36.2314 6.0952C36.2314 8.41552 34.3517 10.2952 32.0314 10.2952C29.7126 10.2952 27.8314 8.41552 27.8314 6.0952C27.8314 3.77644 29.7126 1.8952 32.0314 1.8952C34.3517 1.8952 36.2314 3.77644 36.2314 6.0952ZM34.2314 6.0952C34.2533 5.20144 33.7314 4.38428 32.9111 4.02644C32.0908 3.67019 31.1361 3.84519 30.4954 4.4702C29.8564 5.0952 29.6579 6.0452 29.9954 6.87332C30.3329 7.70144 31.1376 8.24364 32.0314 8.24364C33.2329 8.25771 34.2173 7.29676 34.2313 6.0952H34.2314ZM35.6002 10.8H34.572C34.3095 10.8 34.058 10.9047 33.872 11.0875L32.0314 12.8953L30.1908 11.0875H30.1923C30.0048 10.9047 29.7548 10.8 29.4923 10.8H28.4767C26.3845 10.7891 24.6798 12.4734 24.6642 14.5641V16.8563C24.6642 17.4078 25.1111 17.8563 25.6642 17.8563C26.2158 17.8563 26.6642 17.4078 26.6642 16.8563V14.5641C26.6704 14.0891 26.8642 13.6375 27.2048 13.3063C27.5439 12.9766 28.0017 12.7938 28.4767 12.8H29.0845L31.0283 14.7078C31.5876 15.2438 32.4689 15.2438 33.0283 14.7078L34.9798 12.8H35.6002C36.0752 12.7938 36.5314 12.9766 36.872 13.3063C37.2111 13.6375 37.4064 14.0891 37.4127 14.5641V16.8563C37.4127 17.4078 37.8596 17.8563 38.4127 17.8563C38.9642 17.8563 39.4127 17.4078 39.4127 16.8563V14.5641C39.397 12.4734 37.6908 10.7891 35.6002 10.8H35.6002ZM15.8002 26.292C15.7798 24.5889 16.7892 23.0404 18.3564 22.3748C19.9236 21.7076 21.7392 22.0545 22.9516 23.2514C24.1625 24.4482 24.5313 26.2592 23.8844 27.8342C23.2375 29.4107 21.7032 30.4404 20 30.4404C17.6969 30.4513 15.8172 28.5951 15.8 26.292H15.8002ZM17.8002 26.292C17.7767 27.1858 18.2986 28.0061 19.1189 28.3639C19.9392 28.7217 20.8939 28.5483 21.5346 27.9232C22.1752 27.2982 22.3752 26.3482 22.0377 25.5201C21.7002 24.6904 20.8955 24.1482 20.0002 24.1482C18.8017 24.1342 17.8174 25.0936 17.8002 26.292ZM23.5566 30.9952H22.5409C22.2784 30.9968 22.0268 31.0999 21.8409 31.2843L20.0003 33.0921L18.1596 31.2843C17.9737 31.0999 17.7221 30.9968 17.4596 30.9952H16.444C14.3534 30.9843 12.6471 32.6686 12.6315 34.7593V37.0515C12.6315 37.6046 13.08 38.0515 13.6315 38.0515C14.1846 38.0515 14.6315 37.6046 14.6315 37.0515V34.7593C14.6393 34.2858 14.8331 33.8327 15.1722 33.503C15.5128 33.1718 15.9706 32.989 16.444 32.9952H17.0518L18.9956 34.9077C19.555 35.4436 20.4378 35.4436 20.9956 34.9077L22.9394 32.9999H23.5487C24.0222 32.9937 24.48 33.1765 24.819 33.5062C25.1597 33.8374 25.3534 34.289 25.3597 34.764V37.0562C25.3597 37.6077 25.8081 38.0562 26.3597 38.0562C26.9128 38.0562 27.3597 37.6077 27.3597 37.0562V34.7593C27.3456 32.6718 25.644 30.989 23.5566 30.9952Z" fill="white"/>
</svg>
