<svg width="42" height="42" viewBox="0 0 42 42" fill="none" xmlns="http://www.w3.org/2000/svg">
<path fill-rule="evenodd" clip-rule="evenodd" d="M15.5875 4.30836C15.6843 4.31165 15.7811 4.32969 15.8713 4.36579C15.9615 4.40024 16.0452 4.45274 16.119 4.51508C16.1929 4.57907 16.2536 4.65618 16.3011 4.73985C16.3487 4.82516 16.3799 4.91704 16.3963 5.01383C16.4111 5.10899 16.4111 5.20743 16.393 5.30258C16.375 5.39774 16.3405 5.48961 16.2913 5.57329C16.1929 5.74063 16.0354 5.87188 15.8516 5.93751C11.1774 7.69789 7.84849 12.2115 7.84849 17.5123C7.84849 21.1036 9.37754 24.3276 11.8172 26.5897C11.9172 26.6833 11.9943 26.8014 12.0403 26.931C12.0846 27.0606 12.0977 27.2001 12.0764 27.3362L11.01 34.1663L24.1072 37.5853L24.7356 32.7717C24.7504 32.6569 24.7897 32.5436 24.8504 32.4436C24.9111 32.3435 24.9932 32.2565 25.0883 32.1909C25.1835 32.1237 25.2934 32.0777 25.4083 32.0564C25.5231 32.0334 25.6412 32.0367 25.7561 32.0613L29.6722 32.9538L30.3433 28.8555C30.3597 28.7587 30.3925 28.6636 30.4417 28.5783C30.4909 28.493 30.5533 28.4158 30.6287 28.3519C30.7042 28.2879 30.7912 28.237 30.883 28.2042C30.9749 28.1698 31.075 28.1533 31.1734 28.1533H33.9608L32.3842 20.6656C32.3711 20.6 32.3645 20.5311 32.3662 20.4638L32.5105 16.1605C32.0167 11.6178 29.062 7.81465 25.0081 6.10819C24.9047 6.06718 24.8112 6.00484 24.7324 5.92609C24.6537 5.84734 24.5897 5.75382 24.547 5.6521C24.5044 5.55038 24.4831 5.43882 24.4831 5.32726C24.4831 5.21569 24.506 5.10578 24.5487 5.00241C24.5913 4.90069 24.6553 4.80718 24.7341 4.72843C24.8128 4.65132 24.908 4.58898 25.0114 4.54796C25.1147 4.50695 25.2263 4.48726 25.3362 4.4889C25.4478 4.49054 25.5577 4.51515 25.6594 4.55945C30.2844 6.50686 33.6461 10.8544 34.1875 16.0406C34.1908 16.0783 34.1924 16.1177 34.1908 16.1554L34.0464 20.4176L35.815 28.8193C35.8412 28.9407 35.838 29.0686 35.8101 29.19C35.7805 29.3114 35.7248 29.4246 35.646 29.5214C35.5673 29.6182 35.4672 29.697 35.3556 29.7511C35.2424 29.8053 35.1194 29.8332 34.9947 29.8332H31.8857L31.1868 34.1104C31.1687 34.2236 31.1261 34.3319 31.0654 34.4287C31.003 34.5255 30.9226 34.6075 30.8275 34.6715C30.7323 34.7355 30.624 34.7798 30.5125 34.8011C30.4009 34.8225 30.2828 34.8192 30.1712 34.7946L26.283 33.9086L25.6513 38.7516C25.6366 38.8698 25.5955 38.983 25.5332 39.0847C25.4709 39.1864 25.3872 39.2734 25.2887 39.339C25.1903 39.4046 25.0771 39.4506 24.9606 39.4702C24.8441 39.4899 24.7227 39.485 24.6079 39.4555L9.8537 35.6033C9.75362 35.577 9.66011 35.5327 9.57643 35.472C9.49276 35.4113 9.42058 35.3358 9.36479 35.2505C9.30901 35.1652 9.26799 35.0684 9.24667 34.9667C9.22534 34.8666 9.22206 34.7616 9.23846 34.6599L10.3557 27.5115C7.77833 24.9636 6.17545 21.4215 6.17545 17.5151C6.17545 11.5104 9.95217 6.3704 15.2663 4.36868C15.3713 4.32766 15.4829 4.30798 15.5945 4.31126L15.5875 4.30836Z" fill="white"/>
<path fill-rule="evenodd" clip-rule="evenodd" d="M22.6191 2.52C22.729 2.52 22.839 2.54133 22.9407 2.58399C23.0424 2.62664 23.1359 2.68899 23.213 2.76609C23.2901 2.8432 23.3525 2.93672 23.3951 3.03844C23.4378 3.14016 23.4591 3.25008 23.4591 3.36V15.7416C25.1801 16.7063 26.3482 18.5471 26.3482 20.6506C26.3482 22.4257 25.5181 24.0138 24.2253 25.0459L26.1842 28.437C26.2416 28.5322 26.2777 28.6388 26.2941 28.7487C26.3089 28.8587 26.304 28.9719 26.2744 29.0785C26.2465 29.1852 26.1973 29.2869 26.1301 29.3755C26.0628 29.4641 25.9775 29.5379 25.8823 29.5937C25.7872 29.6494 25.6789 29.6855 25.569 29.6987C25.459 29.7134 25.3458 29.7052 25.2392 29.6757C25.1326 29.6462 25.0308 29.5953 24.9439 29.528C24.8569 29.4591 24.7831 29.3738 24.729 29.277L22.7717 25.8891C22.1351 26.1402 21.4428 26.278 20.7193 26.278C17.6201 26.278 15.0921 23.7498 15.0921 20.6508C15.0921 18.5475 16.2602 16.7051 17.9812 15.7418V3.36024C17.9812 3.25032 18.0026 3.1404 18.0452 3.03868C18.0879 2.93696 18.1502 2.84345 18.2273 2.76634C18.3044 2.68923 18.398 2.62689 18.4997 2.58423C18.6014 2.54158 18.7113 2.52025 18.8212 2.52025L22.6191 2.52ZM21.7791 4.2H19.6627V15.1284C20.0056 15.0628 20.36 15.0283 20.7209 15.0283C21.0818 15.0283 21.4362 15.0628 21.7791 15.1284L21.7791 4.2ZM20.7209 16.708C18.529 16.708 16.7736 18.4635 16.7736 20.6521C16.7736 22.844 18.5291 24.5994 20.7209 24.5994C22.9079 24.5994 24.6682 22.8439 24.6682 20.6521C24.6682 18.4651 22.9079 16.708 20.7209 16.708Z" fill="white"/>
</svg>
