<svg width="559" height="485" viewBox="0 0 559 485" fill="none" xmlns="http://www.w3.org/2000/svg">
<g filter="url(#filter0_dddddd_1_212)">
<path d="M111 2H416.5L432 14L448 26.5V234.988H111V2Z" fill="white"/>
</g>
<path d="M140.942 28.9851V31.1209H137.117V42.5761H134.884V31.1209H131.04V28.9851H140.942ZM145.295 42.8285C143.871 42.8285 142.661 42.3366 141.664 41.3529C140.668 40.3692 140.169 39.1589 140.169 37.7222C140.169 36.2854 140.668 35.0752 141.664 34.0914C142.661 33.1077 143.871 32.6159 145.295 32.6159C146.732 32.6159 147.942 33.1077 148.926 34.0914C149.922 35.0752 150.421 36.2854 150.421 37.7222C150.421 39.1589 149.922 40.3692 148.926 41.3529C147.942 42.3366 146.732 42.8285 145.295 42.8285ZM143.14 39.9161C143.722 40.4986 144.441 40.7898 145.295 40.7898C146.149 40.7898 146.868 40.4986 147.45 39.9161C148.033 39.3337 148.324 38.6023 148.324 37.7222C148.324 36.842 148.033 36.1107 147.45 35.5282C146.868 34.9457 146.149 34.6545 145.295 34.6545C144.441 34.6545 143.722 34.9457 143.14 35.5282C142.557 36.1107 142.266 36.842 142.266 37.7222C142.266 38.6023 142.557 39.3337 143.14 39.9161ZM157.544 34.8875H155.137V39.5472C155.137 39.9485 155.227 40.2397 155.408 40.4209C155.59 40.5892 155.855 40.6863 156.204 40.7122C156.567 40.7251 157.013 40.7187 157.544 40.6928V42.5761C155.939 42.7702 154.787 42.6343 154.088 42.1684C153.389 41.6894 153.04 40.8157 153.04 39.5472V34.8875H151.254V32.8683H153.04V30.7714L155.137 30.1501V32.8683H157.544V34.8875ZM166.736 32.8683H168.833V42.5761H166.736V41.1782C165.947 42.2784 164.814 42.8285 163.339 42.8285C162.005 42.8285 160.866 42.3366 159.922 41.3529C158.977 40.3562 158.504 39.146 158.504 37.7222C158.504 36.2854 158.977 35.0752 159.922 34.0914C160.866 33.1077 162.005 32.6159 163.339 32.6159C164.814 32.6159 165.947 33.1595 166.736 34.2468V32.8683ZM161.475 39.955C162.057 40.5374 162.789 40.8287 163.669 40.8287C164.549 40.8287 165.28 40.5374 165.863 39.955C166.445 39.3596 166.736 38.6153 166.736 37.7222C166.736 36.8291 166.445 36.0913 165.863 35.5088C165.28 34.9134 164.549 34.6157 163.669 34.6157C162.789 34.6157 162.057 34.9134 161.475 35.5088C160.892 36.0913 160.601 36.8291 160.601 37.7222C160.601 38.6153 160.892 39.3596 161.475 39.955ZM171.277 42.5761V28.4027H173.374V42.5761H171.277ZM188.798 35.5282C189.393 35.8389 189.859 36.266 190.196 36.8096C190.533 37.3533 190.701 37.981 190.701 38.693C190.701 39.8061 190.306 40.7316 189.516 41.4694C188.727 42.2072 187.763 42.5761 186.623 42.5761H180.799V28.9851H186.196C187.31 28.9851 188.248 29.3476 189.012 30.0724C189.788 30.7843 190.177 31.6774 190.177 32.7518C190.177 33.9296 189.717 34.8551 188.798 35.5282ZM186.196 31.082H183.032V34.6545H186.196C186.688 34.6545 187.102 34.4862 187.439 34.1497C187.775 33.8002 187.944 33.3731 187.944 32.8683C187.944 32.3635 187.775 31.9428 187.439 31.6062C187.102 31.2568 186.688 31.082 186.196 31.082ZM186.623 40.4792C187.141 40.4792 187.575 40.298 187.924 39.9356C188.287 39.5602 188.468 39.1072 188.468 38.5765C188.468 38.0458 188.287 37.5992 187.924 37.2368C187.575 36.8614 187.141 36.6737 186.623 36.6737H183.032V40.4792H186.623ZM200.297 32.8683H202.394V42.5761H200.297V41.1782C199.507 42.2784 198.375 42.8285 196.899 42.8285C195.566 42.8285 194.427 42.3366 193.482 41.3529C192.537 40.3562 192.064 39.146 192.064 37.7222C192.064 36.2854 192.537 35.0752 193.482 34.0914C194.427 33.1077 195.566 32.6159 196.899 32.6159C198.375 32.6159 199.507 33.1595 200.297 34.2468V32.8683ZM195.035 39.955C195.617 40.5374 196.349 40.8287 197.229 40.8287C198.109 40.8287 198.84 40.5374 199.423 39.955C200.005 39.3596 200.297 38.6153 200.297 37.7222C200.297 36.8291 200.005 36.0913 199.423 35.5088C198.84 34.9134 198.109 34.6157 197.229 34.6157C196.349 34.6157 195.617 34.9134 195.035 35.5088C194.453 36.0913 194.161 36.8291 194.161 37.7222C194.161 38.6153 194.453 39.3596 195.035 39.955ZM204.838 42.5761V28.4027H206.935V42.5761H204.838ZM217.058 32.8683H219.155V42.5761H217.058V41.1782C216.268 42.2784 215.136 42.8285 213.66 42.8285C212.327 42.8285 211.188 42.3366 210.243 41.3529C209.298 40.3562 208.826 39.146 208.826 37.7222C208.826 36.2854 209.298 35.0752 210.243 34.0914C211.188 33.1077 212.327 32.6159 213.66 32.6159C215.136 32.6159 216.268 33.1595 217.058 34.2468V32.8683ZM211.796 39.955C212.379 40.5374 213.11 40.8287 213.99 40.8287C214.87 40.8287 215.602 40.5374 216.184 39.955C216.767 39.3596 217.058 38.6153 217.058 37.7222C217.058 36.8291 216.767 36.0913 216.184 35.5088C215.602 34.9134 214.87 34.6157 213.99 34.6157C213.11 34.6157 212.379 34.9134 211.796 35.5088C211.214 36.0913 210.922 36.8291 210.922 37.7222C210.922 38.6153 211.214 39.3596 211.796 39.955ZM226.705 32.6159C227.818 32.6159 228.718 32.9718 229.404 33.6837C230.09 34.3956 230.433 35.3729 230.433 36.6155V42.5761H228.336V36.8291C228.336 36.1042 228.142 35.5476 227.754 35.1593C227.365 34.771 226.835 34.5768 226.161 34.5768C225.424 34.5768 224.828 34.8098 224.375 35.2758C223.922 35.7288 223.696 36.4278 223.696 37.3727V42.5761H221.599V32.8683H223.696V34.1109C224.33 33.1142 225.333 32.6159 226.705 32.6159ZM237.273 42.8285C235.81 42.8285 234.587 42.3366 233.603 41.3529C232.632 40.3692 232.147 39.1589 232.147 37.7222C232.147 36.2725 232.632 35.0622 233.603 34.0914C234.587 33.1077 235.81 32.6159 237.273 32.6159C238.218 32.6159 239.078 32.8424 239.855 33.2954C240.632 33.7484 241.214 34.3568 241.603 35.1205L239.797 36.1689C239.577 35.7029 239.24 35.3405 238.787 35.0816C238.347 34.8098 237.836 34.6739 237.253 34.6739C236.399 34.6739 235.681 34.9652 235.098 35.5476C234.529 36.1301 234.244 36.8549 234.244 37.7222C234.244 38.5894 234.529 39.3143 235.098 39.8967C235.681 40.4792 236.399 40.7704 237.253 40.7704C237.823 40.7704 238.334 40.6345 238.787 40.3627C239.253 40.0909 239.603 39.7285 239.836 39.2754L241.641 40.3045C241.227 41.0811 240.632 41.6959 239.855 42.1489C239.078 42.602 238.218 42.8285 237.273 42.8285ZM244.656 38.6153C244.811 39.3531 245.167 39.9226 245.723 40.3239C246.28 40.7122 246.96 40.9063 247.762 40.9063C248.875 40.9063 249.71 40.5051 250.267 39.7026L251.995 40.7122C251.037 42.123 249.62 42.8285 247.743 42.8285C246.164 42.8285 244.889 42.3496 243.918 41.3917C242.947 40.4209 242.462 39.1978 242.462 37.7222C242.462 36.2725 242.941 35.0622 243.898 34.0914C244.856 33.1077 246.086 32.6159 247.587 32.6159C249.011 32.6159 250.176 33.1142 251.082 34.1109C252.001 35.1075 252.461 36.3178 252.461 37.7416C252.461 37.9616 252.435 38.2529 252.383 38.6153H244.656ZM244.636 36.9067H250.344C250.202 36.1171 249.872 35.5217 249.354 35.1205C248.849 34.7192 248.254 34.5186 247.568 34.5186C246.791 34.5186 246.144 34.7322 245.626 35.1593C245.109 35.5865 244.779 36.1689 244.636 36.9067Z" fill="black"/>
<path d="M144.817 75.8978C144.817 77.1699 144.41 78.2202 143.596 79.0486C142.783 79.8622 141.695 80.3504 140.334 80.5131V82.4658H138.848V80.5353C137.605 80.4466 136.54 80.0989 135.652 79.4924C134.765 78.8859 134.129 78.0649 133.744 77.0294L136.385 75.4983C136.858 76.6966 137.679 77.3696 138.848 77.5176V73.6788H138.826L138.781 73.6566C137.879 73.3312 137.073 72.9466 136.363 72.5028C135.164 71.7484 134.521 70.5501 134.432 68.9081C134.432 67.5916 134.854 66.5487 135.697 65.7794C136.584 64.9806 137.635 64.5294 138.848 64.4259V62.4954H140.334V64.4703C142.346 64.7217 143.766 65.7646 144.595 67.599L142.021 69.1078C141.666 68.2203 141.104 67.6803 140.334 67.488V71.1936C141.769 71.7705 142.694 72.2069 143.108 72.5028C144.247 73.3312 144.817 74.4628 144.817 75.8978ZM137.472 68.9303C137.472 69.2558 137.576 69.5442 137.783 69.7957C137.99 70.0324 138.345 70.2765 138.848 70.5279V67.4214C137.931 67.599 137.472 68.1019 137.472 68.9303ZM140.334 74.2779V77.4732C141.281 77.2809 141.755 76.7631 141.755 75.9199C141.755 75.2543 141.281 74.7069 140.334 74.2779ZM156.263 74.7661H157.927V77.6063H156.263V80.2469H153.178V77.6063H145.834V74.7661L151.004 64.7143H154.288L149.14 74.7661H153.178V71.0827H156.263V74.7661ZM160.214 77.1847H163.32L161.656 83.3534H159.326L160.214 77.1847ZM175.399 80.2469H165.014V77.9614L170.317 72.5028C171.501 71.2454 172.092 70.2099 172.092 69.3963C172.092 68.7898 171.9 68.3016 171.515 67.9318C171.146 67.562 170.665 67.3771 170.073 67.3771C168.89 67.3771 168.024 67.9836 167.477 69.1966L164.903 67.6877C165.376 66.6374 166.064 65.8312 166.967 65.2691C167.884 64.6922 168.904 64.4037 170.029 64.4037C171.434 64.4037 172.64 64.8475 173.646 65.7351C174.651 66.6078 175.154 67.7913 175.154 69.2853C175.154 70.8978 174.304 72.5546 172.603 74.2557L169.563 77.2957H175.399V80.2469ZM182.976 80.5575C181.038 80.5575 179.514 79.8253 178.405 78.3608C177.31 76.8667 176.763 74.9066 176.763 72.4806C176.763 70.0546 177.31 68.1019 178.405 66.6226C179.514 65.1433 181.038 64.4037 182.976 64.4037C184.943 64.4037 186.467 65.1433 187.547 66.6226C188.641 68.1019 189.189 70.0546 189.189 72.4806C189.189 74.9066 188.641 76.8667 187.547 78.3608C186.467 79.8253 184.943 80.5575 182.976 80.5575ZM186.149 72.4806C186.149 70.8238 185.875 69.559 185.328 68.6862C184.795 67.8135 184.011 67.3771 182.976 67.3771C181.94 67.3771 181.156 67.8135 180.624 68.6862C180.091 69.559 179.825 70.8238 179.825 72.4806C179.825 74.1374 180.091 75.4022 180.624 76.275C181.156 77.133 181.94 77.562 182.976 77.562C184.011 77.562 184.795 77.1256 185.328 76.2528C185.875 75.38 186.149 74.1226 186.149 72.4806ZM196.952 80.5575C195.015 80.5575 193.491 79.8253 192.381 78.3608C191.287 76.8667 190.739 74.9066 190.739 72.4806C190.739 70.0546 191.287 68.1019 192.381 66.6226C193.491 65.1433 195.015 64.4037 196.952 64.4037C198.92 64.4037 200.444 65.1433 201.523 66.6226C202.618 68.1019 203.165 70.0546 203.165 72.4806C203.165 74.9066 202.618 76.8667 201.523 78.3608C200.444 79.8253 198.92 80.5575 196.952 80.5575ZM200.126 72.4806C200.126 70.8238 199.852 69.559 199.305 68.6862C198.772 67.8135 197.988 67.3771 196.952 67.3771C195.917 67.3771 195.133 67.8135 194.6 68.6862C194.068 69.559 193.802 70.8238 193.802 72.4806C193.802 74.1374 194.068 75.4022 194.6 76.275C195.133 77.133 195.917 77.562 196.952 77.562C197.988 77.562 198.772 77.1256 199.305 76.2528C199.852 75.38 200.126 74.1226 200.126 72.4806Z" fill="black"/>
<path d="M222.55 70.4042V72.2432H219.503V75.29H217.664V72.2432H214.617V70.4042H217.664V67.3574H219.503V70.4042H222.55ZM227.09 65.0136H228.893V77.6338H226.819V67.2312L224.277 67.9523L223.772 66.1855L227.09 65.0136ZM240.396 73.4331V75.3621H238.954V77.6338H236.863V75.3621H230.661V73.4331L235.006 65.0136H237.259L232.914 73.4331H236.863V70.1518H238.954V73.4331H240.396ZM245.756 69.7191C245.203 70.272 244.506 70.5485 243.664 70.5485C242.823 70.5485 242.12 70.272 241.555 69.7191C240.99 69.1542 240.708 68.4691 240.708 67.6638C240.708 66.8586 240.99 66.1795 241.555 65.6266C242.12 65.0617 242.823 64.7792 243.664 64.7792C244.506 64.7792 245.203 65.0557 245.756 65.6086C246.321 66.1614 246.603 66.8465 246.603 67.6638C246.603 68.4691 246.321 69.1542 245.756 69.7191ZM243.646 68.9619C244.031 68.9619 244.343 68.8357 244.584 68.5833C244.824 68.3309 244.944 68.0244 244.944 67.6638C244.944 67.2912 244.824 66.9787 244.584 66.7263C244.343 66.4739 244.031 66.3477 243.646 66.3477C243.274 66.3477 242.967 66.4739 242.727 66.7263C242.487 66.9787 242.366 67.2912 242.366 67.6638C242.366 68.0244 242.487 68.3309 242.727 68.5833C242.967 68.8357 243.274 68.9619 243.646 68.9619ZM241.771 75.7768L250.083 66.528L251.056 67.0869L242.745 76.3537L241.771 75.7768ZM249.434 77.8501C248.592 77.8501 247.889 77.5737 247.324 77.0208C246.759 76.4559 246.477 75.7708 246.477 74.9655C246.477 74.1602 246.759 73.4811 247.324 72.9283C247.889 72.3634 248.592 72.0809 249.434 72.0809C250.263 72.0809 250.96 72.3634 251.525 72.9283C252.09 73.4811 252.372 74.1602 252.372 74.9655C252.372 75.7708 252.09 76.4559 251.525 77.0208C250.96 77.5737 250.263 77.8501 249.434 77.8501ZM249.416 76.2636C249.8 76.2636 250.113 76.1374 250.353 75.885C250.593 75.6326 250.714 75.3261 250.714 74.9655C250.714 74.5929 250.593 74.2804 250.353 74.028C250.113 73.7756 249.8 73.6494 249.416 73.6494C249.043 73.6494 248.737 73.7756 248.496 74.028C248.256 74.2804 248.136 74.5929 248.136 74.9655C248.136 75.3261 248.256 75.6326 248.496 75.885C248.737 76.1374 249.043 76.2636 249.416 76.2636Z" fill="#00E1F0"/>
<path d="M132.775 102.699H133.885V110.465H132.609V104.063L131.044 104.507L130.734 103.42L132.775 102.699ZM140.454 109.511C139.921 110.243 139.174 110.609 138.212 110.609C137.251 110.609 136.5 110.243 135.96 109.511C135.428 108.779 135.161 107.802 135.161 106.582C135.161 105.361 135.428 104.385 135.96 103.653C136.5 102.921 137.251 102.554 138.212 102.554C139.174 102.554 139.921 102.921 140.454 103.653C140.993 104.385 141.263 105.361 141.263 106.582C141.263 107.802 140.993 108.779 140.454 109.511ZM138.212 109.367C138.789 109.367 139.229 109.126 139.533 108.645C139.836 108.165 139.988 107.477 139.988 106.582C139.988 105.687 139.836 104.999 139.533 104.518C139.229 104.037 138.789 103.797 138.212 103.797C137.643 103.797 137.203 104.037 136.892 104.518C136.589 104.999 136.437 105.687 136.437 106.582C136.437 107.477 136.589 108.165 136.892 108.645C137.203 109.126 137.643 109.367 138.212 109.367ZM147.309 110.465H145.878L143.603 107.902V110.465H142.405V102.699H143.603V107.37L145.755 104.918H147.22L144.779 107.636L147.309 110.465Z" fill="#718EBF"/>
<path d="M143.064 134.23V135.417H142.176V136.815H140.889V135.417H137.073V134.23L139.746 129.048H141.133L138.459 134.23H140.889V132.21H142.176V134.23H143.064ZM148.856 136.815H147.425L145.15 134.252V136.815H143.952V129.048H145.15V133.719L147.303 131.267H148.767L146.326 133.986L148.856 136.815Z" fill="#718EBF"/>
<path d="M136.725 163.165V162.166L139.432 159.403C140.09 158.745 140.419 158.176 140.419 157.695C140.419 157.318 140.305 157.025 140.075 156.818C139.853 156.604 139.569 156.497 139.221 156.497C138.57 156.497 138.089 156.818 137.779 157.462L136.703 156.829C136.947 156.312 137.291 155.92 137.734 155.653C138.178 155.387 138.67 155.254 139.21 155.254C139.89 155.254 140.475 155.469 140.963 155.898C141.451 156.327 141.695 156.911 141.695 157.65C141.695 158.442 141.255 159.285 140.375 160.18L138.622 161.933H141.839V163.165H136.725ZM147.856 163.165H146.425L144.15 160.602V163.165H142.952V155.398H144.15V160.069L146.303 157.617H147.767L145.326 160.335L147.856 163.165Z" fill="#718EBF"/>
<path d="M145.871 189.947C145.339 190.679 144.592 191.045 143.63 191.045C142.669 191.045 141.918 190.679 141.378 189.947C140.845 189.215 140.579 188.238 140.579 187.018C140.579 185.798 140.845 184.821 141.378 184.089C141.918 183.357 142.669 182.991 143.63 182.991C144.592 182.991 145.339 183.357 145.871 184.089C146.411 184.821 146.681 185.798 146.681 187.018C146.681 188.238 146.411 189.215 145.871 189.947ZM143.63 189.803C144.207 189.803 144.647 189.562 144.95 189.082C145.254 188.601 145.405 187.913 145.405 187.018C145.405 186.123 145.254 185.435 144.95 184.954C144.647 184.474 144.207 184.233 143.63 184.233C143.061 184.233 142.62 184.474 142.31 184.954C142.007 185.435 141.855 186.123 141.855 187.018C141.855 187.913 142.007 188.601 142.31 189.082C142.62 189.562 143.061 189.803 143.63 189.803Z" fill="#718EBF"/>
<path d="M174.272 207.688C173.525 207.688 172.889 207.517 172.364 207.177C171.846 206.837 171.484 206.371 171.277 205.779L172.375 205.136C172.686 206.009 173.329 206.445 174.305 206.445C174.786 206.445 175.145 206.352 175.382 206.168C175.626 205.975 175.748 205.727 175.748 205.424C175.748 205.106 175.618 204.866 175.359 204.703C175.101 204.533 174.642 204.348 173.984 204.148C173.614 204.037 173.314 203.934 173.085 203.838C172.856 203.742 172.612 203.608 172.353 203.438C172.101 203.261 171.913 203.043 171.787 202.784C171.661 202.525 171.598 202.222 171.598 201.874C171.598 201.186 171.842 200.642 172.331 200.243C172.819 199.836 173.407 199.633 174.095 199.633C174.716 199.633 175.26 199.784 175.726 200.088C176.192 200.391 176.55 200.809 176.802 201.341L175.726 201.963C175.4 201.238 174.856 200.875 174.095 200.875C173.725 200.875 173.429 200.964 173.207 201.142C172.985 201.312 172.874 201.545 172.874 201.841C172.874 202.129 172.985 202.358 173.207 202.529C173.436 202.691 173.847 202.865 174.439 203.05C174.734 203.146 174.949 203.22 175.082 203.272C175.223 203.316 175.415 203.39 175.659 203.494C175.91 203.597 176.099 203.701 176.225 203.804C176.351 203.908 176.484 204.037 176.624 204.193C176.772 204.348 176.876 204.526 176.935 204.725C176.994 204.925 177.024 205.151 177.024 205.402C177.024 206.105 176.768 206.663 176.258 207.077C175.755 207.484 175.093 207.688 174.272 207.688Z" fill="#718EBF"/>
<path d="M159.539 180.901C159.539 178.603 161.402 176.741 163.7 176.741H183.115C185.413 176.741 187.276 178.603 187.276 180.901V193.383H159.539V180.901Z" fill="#E8F2FF"/>
<path d="M210.75 199.777V207.543H209.474V202.007L207.111 205.912H206.956L204.593 201.996V207.543H203.317V199.777H204.692L207.033 203.66L209.385 199.777H210.75Z" fill="#718EBF"/>
<path d="M192.823 172.58C192.823 170.283 194.686 168.42 196.984 168.42H216.399C218.697 168.42 220.56 170.283 220.56 172.58V193.383H192.823V172.58Z" fill="#E8F2FF"/>
<path d="M243.031 199.777V200.998H240.845V207.543H239.569V200.998H237.372V199.777H243.031Z" fill="#718EBF"/>
<path d="M226.107 139.296C226.107 136.999 227.97 135.136 230.268 135.136H249.683C251.981 135.136 253.844 136.999 253.844 139.296V193.383H226.107V139.296Z" fill="#E8F2FF"/>
<path d="M270.589 207.543L268.392 199.777H269.734L271.365 205.846L273.129 199.777H274.305L276.058 205.846L277.689 199.777H279.032L276.835 207.543H275.359L273.717 201.874L272.064 207.543H270.589Z" fill="#718EBF"/>
<path d="M259.391 154.552C259.391 152.254 261.254 150.391 263.551 150.391H282.967C285.265 150.391 287.128 152.254 287.128 154.552V193.383H259.391V154.552Z" fill="#3734A9"/>
<path d="M309.599 199.777V200.998H307.413V207.544H306.137V200.998H303.94V199.777H309.599Z" fill="#718EBF"/>
<path d="M292.675 115.72C292.675 113.423 294.538 111.56 296.836 111.56H316.251C318.549 111.56 320.412 113.423 320.412 115.72V193.383H292.675V115.72Z" fill="#FF7F5C"/>
<path d="M343.895 200.998H340.622V203.172H343.784V204.393H340.622V207.543H339.346V199.777H343.895V200.998Z" fill="#718EBF"/>
<path d="M325.959 180.901C325.959 178.604 327.822 176.741 330.119 176.741H349.535C351.833 176.741 353.696 178.604 353.696 180.901V193.383H325.959V180.901Z" fill="#E8F2FF"/>
<path d="M373.976 207.688C373.229 207.688 372.593 207.518 372.068 207.177C371.55 206.837 371.188 206.371 370.98 205.779L372.079 205.136C372.389 206.009 373.033 206.445 374.009 206.445C374.49 206.445 374.849 206.353 375.085 206.168C375.33 205.975 375.452 205.728 375.452 205.424C375.452 205.106 375.322 204.866 375.063 204.703C374.804 204.533 374.346 204.348 373.688 204.148C373.318 204.037 373.018 203.934 372.789 203.838C372.56 203.742 372.315 203.608 372.057 203.438C371.805 203.261 371.617 203.043 371.491 202.784C371.365 202.525 371.302 202.222 371.302 201.874C371.302 201.186 371.546 200.643 372.034 200.243C372.523 199.836 373.111 199.633 373.798 199.633C374.42 199.633 374.963 199.785 375.429 200.088C375.895 200.391 376.254 200.809 376.506 201.341L375.429 201.963C375.104 201.238 374.56 200.876 373.798 200.876C373.429 200.876 373.133 200.964 372.911 201.142C372.689 201.312 372.578 201.545 372.578 201.841C372.578 202.129 372.689 202.358 372.911 202.529C373.14 202.691 373.551 202.865 374.142 203.05C374.438 203.146 374.653 203.22 374.786 203.272C374.926 203.316 375.119 203.39 375.363 203.494C375.614 203.597 375.803 203.701 375.929 203.804C376.054 203.908 376.187 204.037 376.328 204.193C376.476 204.348 376.58 204.526 376.639 204.725C376.698 204.925 376.727 205.151 376.727 205.402C376.727 206.105 376.472 206.663 375.962 207.077C375.459 207.484 374.797 207.688 373.976 207.688Z" fill="#718EBF"/>
<path d="M359.243 154.552C359.243 152.254 361.106 150.391 363.403 150.391H382.819C385.117 150.391 386.98 152.254 386.98 154.552V193.383H359.243V154.552Z" fill="#3734A9"/>
<path d="M408.647 207.688C407.9 207.688 407.263 207.518 406.738 207.177C406.221 206.837 405.858 206.371 405.651 205.779L406.749 205.136C407.06 206.009 407.704 206.445 408.68 206.445C409.161 206.445 409.519 206.353 409.756 206.168C410 205.975 410.122 205.728 410.122 205.424C410.122 205.106 409.993 204.866 409.734 204.703C409.475 204.533 409.016 204.348 408.358 204.148C407.988 204.038 407.689 203.934 407.459 203.838C407.23 203.742 406.986 203.609 406.727 203.438C406.476 203.261 406.287 203.043 406.161 202.784C406.036 202.525 405.973 202.222 405.973 201.874C405.973 201.186 406.217 200.643 406.705 200.243C407.193 199.836 407.781 199.633 408.469 199.633C409.09 199.633 409.634 199.785 410.1 200.088C410.566 200.391 410.925 200.809 411.176 201.342L410.1 201.963C409.775 201.238 409.231 200.876 408.469 200.876C408.099 200.876 407.803 200.964 407.581 201.142C407.36 201.312 407.249 201.545 407.249 201.841C407.249 202.129 407.36 202.359 407.581 202.529C407.811 202.691 408.221 202.865 408.813 203.05C409.109 203.146 409.323 203.22 409.456 203.272C409.597 203.316 409.789 203.39 410.033 203.494C410.285 203.597 410.473 203.701 410.599 203.805C410.725 203.908 410.858 204.038 410.999 204.193C411.147 204.348 411.25 204.526 411.309 204.725C411.368 204.925 411.398 205.151 411.398 205.402C411.398 206.105 411.143 206.663 410.633 207.077C410.13 207.484 409.468 207.688 408.647 207.688Z" fill="#718EBF"/>
<path d="M392.527 133.749C392.527 131.451 394.389 129.589 396.687 129.589H416.103C418.401 129.589 420.263 131.451 420.263 133.749V193.383H392.527V133.749Z" fill="#FF7F5C"/>
<defs>
<filter id="filter0_dddddd_1_212" x="0.0534973" y="0.202256" width="558.893" height="484.415" filterUnits="userSpaceOnUse" color-interpolation-filters="sRGB">
<feFlood flood-opacity="0" result="BackgroundImageFix"/>
<feColorMatrix in="SourceAlpha" type="matrix" values="0 0 0 0 0 0 0 0 0 0 0 0 0 0 0 0 0 0 127 0" result="hardAlpha"/>
<feOffset dy="2.56821"/>
<feGaussianBlur stdDeviation="2.18298"/>
<feColorMatrix type="matrix" values="0 0 0 0 0 0 0 0 0 0 0 0 0 0 0 0 0 0 0.01 0"/>
<feBlend mode="normal" in2="BackgroundImageFix" result="effect1_dropShadow_1_212"/>
<feColorMatrix in="SourceAlpha" type="matrix" values="0 0 0 0 0 0 0 0 0 0 0 0 0 0 0 0 0 0 127 0" result="hardAlpha"/>
<feOffset dy="11.3001"/>
<feGaussianBlur stdDeviation="4.52004"/>
<feColorMatrix type="matrix" values="0 0 0 0 0 0 0 0 0 0 0 0 0 0 0 0 0 0 0.0117778 0"/>
<feBlend mode="normal" in2="effect1_dropShadow_1_212" result="effect2_dropShadow_1_212"/>
<feColorMatrix in="SourceAlpha" type="matrix" values="0 0 0 0 0 0 0 0 0 0 0 0 0 0 0 0 0 0 127 0" result="hardAlpha"/>
<feOffset dy="27.7366"/>
<feGaussianBlur stdDeviation="9.0144"/>
<feColorMatrix type="matrix" values="0 0 0 0 0 0 0 0 0 0 0 0 0 0 0 0 0 0 0.015 0"/>
<feBlend mode="normal" in2="effect2_dropShadow_1_212" result="effect3_dropShadow_1_212"/>
<feColorMatrix in="SourceAlpha" type="matrix" values="0 0 0 0 0 0 0 0 0 0 0 0 0 0 0 0 0 0 127 0" result="hardAlpha"/>
<feOffset dy="53.4187"/>
<feGaussianBlur stdDeviation="17.6693"/>
<feColorMatrix type="matrix" values="0 0 0 0 0 0 0 0 0 0 0 0 0 0 0 0 0 0 0.0182222 0"/>
<feBlend mode="normal" in2="effect3_dropShadow_1_212" result="effect4_dropShadow_1_212"/>
<feColorMatrix in="SourceAlpha" type="matrix" values="0 0 0 0 0 0 0 0 0 0 0 0 0 0 0 0 0 0 127 0" result="hardAlpha"/>
<feOffset dy="89.8872"/>
<feGaussianBlur stdDeviation="32.4878"/>
<feColorMatrix type="matrix" values="0 0 0 0 0 0 0 0 0 0 0 0 0 0 0 0 0 0 0.0227778 0"/>
<feBlend mode="normal" in2="effect4_dropShadow_1_212" result="effect5_dropShadow_1_212"/>
<feColorMatrix in="SourceAlpha" type="matrix" values="0 0 0 0 0 0 0 0 0 0 0 0 0 0 0 0 0 0 127 0" result="hardAlpha"/>
<feOffset dy="138.683"/>
<feGaussianBlur stdDeviation="55.4733"/>
<feColorMatrix type="matrix" values="0 0 0 0 0 0 0 0 0 0 0 0 0 0 0 0 0 0 0.03 0"/>
<feBlend mode="normal" in2="effect5_dropShadow_1_212" result="effect6_dropShadow_1_212"/>
<feBlend mode="normal" in="SourceGraphic" in2="effect6_dropShadow_1_212" result="shape"/>
</filter>
</defs>
</svg>
